# xmcd
#
# Track frame offsets:
# 150
# 24939
# 46385
# 89879
# 108432
# 126586
# 141832
# 166578
# 211853
# 237913
# 271001
# 307056
#
# Disc length: 4551 seconds
#
#
# Revision: 0
# Processed by: cddbd v1.5.2PL0 Copyright (c) Steve Scherf et al.
# Submitted via: FreeRIP 2.96 
#
DISCID=a511c50c
DTITLE=Mo Hayder - Ritualmord CD6v6
DYEAR=2008
DGENRE=Speech
TTITLE0=54  Ritualmord
TTITLE1=55 Ritualmord
TTITLE2=56 Ritualmord
TTITLE3=57 Ritualmord
TTITLE4=58 Ritualmord
TTITLE5=59 Ritualmord
TTITLE6=60 Ritualmord
TTITLE7=61 Ritualmord
TTITLE8=62 Ritualmord
TTITLE9=63 Ritualmord
TTITLE10=64 Ritualmord
TTITLE11=65 Ritualmord
EXTD=gelesen von Dietmar Bär
EXTT0=
EXTT1=
EXTT2=
EXTT3=
EXTT4=
EXTT5=
EXTT6=
EXTT7=
EXTT8=
EXTT9=
EXTT10=
EXTT11=
PLAYORDER=
